HIERARCHY
ROOT Hips
{
	OFFSET 0.000000 83.214638 0.000000
	CHANNELS 6 Xposition Yposition Zposition Xrotation Yrotation Zrotation
	JOINT Pelvis
	{
		OFFSET 0.000000 0.000000 0.000000
		CHANNELS 3 Xrotation Yrotation Zrotation
		JOINT LeftUpLeg
		{
			OFFSET 8.479700 -4.795502 -0.379100
			CHANNELS 3 Xrotation Yrotation Zrotation
			JOINT LeftLeg
			{
				OFFSET 0.024144 -32.555107 0.112900
				CHANNELS 3 Xrotation Yrotation Zrotation
				JOINT LeftFoot
				{
					OFFSET -0.024144 -32.638630 -3.012600
					CHANNELS 3 Xrotation Yrotation Zrotation
					JOINT LeftToeBase
					{
						OFFSET 0.970200 -13.225400 11.864200
						CHANNELS 3 Xrotation Yrotation Zrotation
						End Site
						{
							OFFSET 0.000000 12.319262 0.000000
						}
					}
					JOINT LFootTongue
					{
						OFFSET 1.142400 -1.059800 6.665200
						CHANNELS 3 Xrotation Yrotation Zrotation
						End Site
						{
							OFFSET 0.000000 12.319262 0.000000
						}
					}
				}
				JOINT LeftPantLeg
				{
					OFFSET 0.918482 -16.533964 -2.284700
					CHANNELS 3 Xrotation Yrotation Zrotation
					End Site
					{
						OFFSET 0.350399 24.744368 0.000000
					}
				}
			}
		}
		JOINT RightUpLeg
		{
			OFFSET -8.479700 -4.795502 -0.379100
			CHANNELS 3 Xrotation Yrotation Zrotation
			JOINT RightLeg
			{
				OFFSET -0.023144 -32.555092 0.112900
				CHANNELS 3 Xrotation Yrotation Zrotation
				JOINT RightFoot
				{
					OFFSET 0.023144 -32.638641 -3.012700
					CHANNELS 3 Xrotation Yrotation Zrotation
					JOINT RightToeBase
					{
						OFFSET -0.970200 -13.225400 11.864200
						CHANNELS 3 Xrotation Yrotation Zrotation
						End Site
						{
							OFFSET 0.000000 12.319244 0.000000
						}
					}
					JOINT RFootTongue
					{
						OFFSET -1.142200 -1.059800 6.665200
						CHANNELS 3 Xrotation Yrotation Zrotation
						End Site
						{
							OFFSET 0.000000 12.319243 0.000000
						}
					}
				}
				JOINT RightPantLeg
				{
					OFFSET -0.919482 -16.533978 -2.284800
					CHANNELS 3 Xrotation Yrotation Zrotation
					End Site
					{
						OFFSET -0.350400 24.744419 0.000000
					}
				}
			}
		}
	}
	JOINT Spine
	{
		OFFSET 0.000000 7.722000 1.166200
		CHANNELS 3 Xrotation Yrotation Zrotation
		JOINT Spine1
		{
			OFFSET 0.000000 12.024101 0.248800
			CHANNELS 3 Xrotation Yrotation Zrotation
			JOINT Spine2
			{
				OFFSET 0.000000 11.502998 -0.491200
				CHANNELS 3 Xrotation Yrotation Zrotation
				JOINT Neck
				{
					OFFSET 0.000000 18.430702 -3.123100
					CHANNELS 3 Xrotation Yrotation Zrotation
					JOINT Head
					{
						OFFSET 0.000000 9.051102 1.034000
						CHANNELS 3 Xrotation Yrotation Zrotation
						JOINT HairB
						{
							OFFSET 0.208400 24.786102 24.822300
							CHANNELS 3 Xrotation Yrotation Zrotation
							End Site
							{
								OFFSET 0.000000 32.263779 0.000000
							}
						}
						JOINT HairA
						{
							OFFSET -7.081100 24.428299 23.196600
							CHANNELS 3 Xrotation Yrotation Zrotation
							End Site
							{
								OFFSET 0.000000 32.263779 0.000000
							}
						}
						JOINT Hat
						{
							OFFSET 16.728800 15.048294 -15.439601
							CHANNELS 3 Xrotation Yrotation Zrotation
							End Site
							{
								OFFSET 0.000000 32.263779 0.000000
							}
						}
					}
				}
				JOINT LeftShoulder
				{
					OFFSET 6.197800 13.665199 -4.064700
					CHANNELS 3 Xrotation Yrotation Zrotation
					JOINT LeftArm
					{
						OFFSET 7.778100 -0.187103 -1.709300
						CHANNELS 3 Xrotation Yrotation Zrotation
						JOINT LeftForeArm
						{
							OFFSET 22.049376 0.000000 0.000000
							CHANNELS 3 Xrotation Yrotation Zrotation
							JOINT LeftHand
							{
								OFFSET 23.009392 0.000000 0.000000
								CHANNELS 3 Xrotation Yrotation Zrotation
								JOINT LeftHandThumb1
								{
									OFFSET 3.507191 -2.063065 3.133727
									CHANNELS 3 Xrotation Yrotation Zrotation
									JOINT LeftHandThumb2
									{
										OFFSET 3.101337 -1.790558 1.790558
										CHANNELS 3 Xrotation Yrotation Zrotation
										JOINT LeftHandThumb3
										{
											OFFSET 3.058640 -1.765907 1.765906
											CHANNELS 3 Xrotation Yrotation Zrotation
											End Site
											{
												OFFSET -0.415260 3.926476 -0.049563
											}
										}
									}
								}
								JOINT LeftHandIndex1
								{
									OFFSET 11.334419 -0.901459 3.706815
									CHANNELS 3 Xrotation Yrotation Zrotation
									JOINT LeftHandIndex2
									{
										OFFSET 3.283112 0.000000 0.000000
										CHANNELS 3 Xrotation Yrotation Zrotation
										JOINT LeftHandIndex3
										{
											OFFSET 3.323853 0.000000 0.000000
											CHANNELS 3 Xrotation Yrotation Zrotation
											End Site
											{
												OFFSET -1.135597 3.097809 0.402452
											}
										}
									}
								}
								JOINT LeftHandMiddle1
								{
									OFFSET 11.335861 0.000000 0.000000
									CHANNELS 3 Xrotation Yrotation Zrotation
									JOINT LeftHandMiddle2
									{
										OFFSET 3.410492 0.000000 0.000000
										CHANNELS 3 Xrotation Yrotation Zrotation
										JOINT LeftHandMiddle3
										{
											OFFSET 3.312172 0.000000 0.000000
											CHANNELS 3 Xrotation Yrotation Zrotation
											End Site
											{
												OFFSET -1.150200 3.080154 0.400270
											}
										}
									}
								}
								JOINT LeftHandRing1
								{
									OFFSET 11.514786 -0.013176 -3.003090
									CHANNELS 3 Xrotation Yrotation Zrotation
									JOINT LeftHandRing2
									{
										OFFSET 3.053307 0.000000 0.000000
										CHANNELS 3 Xrotation Yrotation Zrotation
										JOINT LeftHandRing3
										{
											OFFSET 3.295807 0.000000 0.000000
											CHANNELS 3 Xrotation Yrotation Zrotation
											End Site
											{
												OFFSET -1.281006 3.013344 0.375733
											}
										}
									}
								}
								JOINT LeftHandPinky1
								{
									OFFSET 10.518692 -0.960396 -5.730441
									CHANNELS 3 Xrotation Yrotation Zrotation
									JOINT LeftHandPinky2
									{
										OFFSET 2.861649 0.000000 0.000000
										CHANNELS 3 Xrotation Yrotation Zrotation
										JOINT LeftHandPinky3
										{
											OFFSET 2.863380 0.000000 0.000000
											CHANNELS 3 Xrotation Yrotation Zrotation
											End Site
											{
												OFFSET -0.843597 2.711159 0.369971
											}
										}
									}
								}
							}
							JOINT LSleeve
							{
								OFFSET 6.676277 -0.344902 -1.011730
								CHANNELS 3 Xrotation Yrotation Zrotation
								End Site
								{
									OFFSET 0.000000 14.885353 0.000000
								}
							}
						}
					}
				}
				JOINT RightShoulder
				{
					OFFSET -6.197800 13.665199 -4.064700
					CHANNELS 3 Xrotation Yrotation Zrotation
					JOINT RightArm
					{
						OFFSET -7.778100 -0.187103 -1.709300
						CHANNELS 3 Xrotation Yrotation Zrotation
						JOINT RightForeArm
						{
							OFFSET -22.049376 0.000000 0.000000
							CHANNELS 3 Xrotation Yrotation Zrotation
							JOINT RightHand
							{
								OFFSET -23.009392 0.000000 0.000000
								CHANNELS 3 Xrotation Yrotation Zrotation
								JOINT RightHandThumb1
								{
									OFFSET -3.507191 -2.063065 3.133727
									CHANNELS 3 Xrotation Yrotation Zrotation
									JOINT RightHandThumb2
									{
										OFFSET -3.101337 -1.790558 1.790558
										CHANNELS 3 Xrotation Yrotation Zrotation
										JOINT RightHandThumb3
										{
											OFFSET -3.058640 -1.765907 1.765906
											CHANNELS 3 Xrotation Yrotation Zrotation
											End Site
											{
												OFFSET 0.415260 3.926476 -0.049563
											}
										}
									}
								}
								JOINT RightHandIndex1
								{
									OFFSET -11.334419 -0.901459 3.706815
									CHANNELS 3 Xrotation Yrotation Zrotation
									JOINT RightHandIndex2
									{
										OFFSET -3.283112 0.000000 0.000000
										CHANNELS 3 Xrotation Yrotation Zrotation
										JOINT RightHandIndex3
										{
											OFFSET -3.323853 0.000000 0.000000
											CHANNELS 3 Xrotation Yrotation Zrotation
											End Site
											{
												OFFSET 1.135597 3.097809 0.402452
											}
										}
									}
								}
								JOINT RightHandMiddle1
								{
									OFFSET -11.335861 0.000000 0.000000
									CHANNELS 3 Xrotation Yrotation Zrotation
									JOINT RightHandMiddle2
									{
										OFFSET -3.410492 0.000000 0.000000
										CHANNELS 3 Xrotation Yrotation Zrotation
										JOINT RightHandMiddle3
										{
											OFFSET -3.312172 0.000000 0.000000
											CHANNELS 3 Xrotation Yrotation Zrotation
											End Site
											{
												OFFSET 1.150200 3.080154 0.400270
											}
										}
									}
								}
								JOINT RightHandRing1
								{
									OFFSET -11.514786 -0.013176 -3.003090
									CHANNELS 3 Xrotation Yrotation Zrotation
									JOINT RightHandRing2
									{
										OFFSET -3.053307 0.000000 0.000000
										CHANNELS 3 Xrotation Yrotation Zrotation
										JOINT RightHandRing3
										{
											OFFSET -3.295807 0.000000 0.000000
											CHANNELS 3 Xrotation Yrotation Zrotation
											End Site
											{
												OFFSET 1.281006 3.013344 0.375733
											}
										}
									}
								}
								JOINT RightHandPinky1
								{
									OFFSET -10.518692 -0.960396 -5.730441
									CHANNELS 3 Xrotation Yrotation Zrotation
									JOINT RightHandPinky2
									{
										OFFSET -2.861649 0.000000 0.000000
										CHANNELS 3 Xrotation Yrotation Zrotation
										JOINT RightHandPinky3
										{
											OFFSET -2.863380 0.000000 0.000000
											CHANNELS 3 Xrotation Yrotation Zrotation
											End Site
											{
												OFFSET 0.843597 2.711159 0.369971
											}
										}
									}
								}
							}
							JOINT RSleeve
							{
								OFFSET -6.676277 -0.344902 -1.011730
								CHANNELS 3 Xrotation Yrotation Zrotation
								End Site
								{
									OFFSET 0.000000 14.885353 0.000000
								}
							}
						}
					}
				}
				JOINT Backpack
				{
					OFFSET 0.000000 -2.471497 36.677502
					CHANNELS 3 Xrotation Yrotation Zrotation
					End Site
					{
						OFFSET 0.000000 20.427315 0.000000
					}
				}
				JOINT Hood
				{
					OFFSET 0.000000 18.754097 -10.431000
					CHANNELS 3 Xrotation Yrotation Zrotation
					JOINT Hood1
					{
						OFFSET 0.000000 -5.011002 -7.685901
						CHANNELS 3 Xrotation Yrotation Zrotation
						End Site
						{
							OFFSET 0.000000 9.175140 0.000000
						}
					}
				}
				JOINT LHoodieString
				{
					OFFSET 5.250500 16.397697 3.089900
					CHANNELS 3 Xrotation Yrotation Zrotation
					JOINT LHoodieString1
					{
						OFFSET 0.257700 -6.364304 3.694600
						CHANNELS 3 Xrotation Yrotation Zrotation
						JOINT LHoodieString2
						{
							OFFSET 0.000000 -9.643799 2.679100
							CHANNELS 3 Xrotation Yrotation Zrotation
							End Site
							{
								OFFSET 0.000000 10.009018 0.000000
							}
						}
					}
				}
				JOINT RHoodieString
				{
					OFFSET -5.250500 16.397697 3.089900
					CHANNELS 3 Xrotation Yrotation Zrotation
					JOINT RHoodieString1
					{
						OFFSET -0.257700 -6.364304 3.694600
						CHANNELS 3 Xrotation Yrotation Zrotation
						JOINT RHoodieString2
						{
							OFFSET 0.000000 -9.643799 2.679100
							CHANNELS 3 Xrotation Yrotation Zrotation
							End Site
							{
								OFFSET 0.000000 10.009018 0.000000
							}
						}
					}
				}
			}
			JOINT LBackpack_Strap
			{
				OFFSET 15.223200 -7.719803 -6.610900
				CHANNELS 3 Xrotation Yrotation Zrotation
				End Site
				{
					OFFSET 0.000000 16.040596 0.000000
				}
			}
			JOINT RBackpack_Strap
			{
				OFFSET -15.223000 -7.719803 -6.610900
				CHANNELS 3 Xrotation Yrotation Zrotation
				End Site
				{
					OFFSET 0.000000 16.040596 0.000000
				}
			}
		}
	}
	JOINT BoyFacialAnim_Joint
	{
		OFFSET 1.000000 -82.208099 -1.550900
		CHANNELS 3 Xrotation Yrotation Zrotation
		End Site
		{
			OFFSET 0.000000 30.012791 0.000000
		}
	}
}
MOTION
Frames: 4
Frame Time: 0.033333
0.211470 80.359932 0.294664 -0.272364 10.118507 -5.084363 0.000000 0.000000 0.000000 -27.777573 -1.476034 3.340101 65.332672 1.907644 6.995119 5.595137 0.155836 -1.293445 0.000000 -0.000000 -0.000000 0.000000 -0.000000 -0.000000 -0.000001 -0.000000 -0.000000 -10.705572 -13.459690 10.081952 21.555917 1.111366 -2.028193 -9.890161 -4.697113 -5.612279 -0.000000 0.000000 0.000000 -0.000000 0.000000 0.000000 -0.000001 0.000000 -0.000001 0.310954 -1.187534 1.879025 0.590163 -2.160476 1.463376 0.590163 -2.160475 1.463377 -3.377644 -1.161219 -0.933490 -1.344181 -3.830460 0.261168 -0.000000 0.000000 -0.000000 -0.000000 0.000000 -0.000000 -0.000000 0.000000 -0.000000 8.280136 -20.929395 3.138037 2.316985 4.494931 -76.912254 -0.275825 -37.703614 -0.168684 20.414349 -19.327953 5.362869 28.694639 8.381490 20.821268 -8.824802 18.135107 -12.288288 0.000001 -0.000002 0.000002 0.329013 3.638322 3.955463 0.242380 2.317203 -16.837945 0.000004 0.000003 -0.000005 0.593021 7.564364 -16.550684 0.544255 3.170450 -26.733769 0.000004 -0.000000 0.000004 0.710168 7.736659 -33.832867 0.400173 1.921046 -17.724112 -0.000002 -0.000002 -0.000003 3.511367 13.339760 -31.501655 0.423536 2.411180 -29.121061 -0.000001 -0.000001 -0.000000 0.000001 0.000003 -0.000001 -0.854975 5.246279 5.396770 22.915134 -2.857604 73.759438 -0.217466 34.071538 0.123851 26.014758 7.871212 4.305943 12.333941 -7.634153 -17.315901 6.201074 -5.410709 -13.158496 0.000002 0.000003 0.000001 -0.948065 0.809748 10.751147 0.578269 -3.155982 26.774193 -0.000003 0.000001 0.000002 0.801632 -7.991562 23.169733 1.055961 -4.013382 37.657288 0.000004 -0.000001 -0.000001 1.052960 -8.355553 40.429037 0.674296 -2.458817 24.357530 0.000001 0.000000 0.000004 2.353266 -9.970372 45.319780 1.422670 -3.907495 49.114958 -0.000000 -0.000001 -0.000000 -0.000000 0.000000 -0.000001 0.000000 -0.000000 0.000000 0.000000 -0.000000 0.000000 0.000000 -0.000000 0.000000 0.000000 -0.000000 0.000000 0.000000 -0.000000 0.000000 0.000000 -0.000000 0.000000 0.000000 -0.000000 0.000000 0.000000 -0.000000 0.000000 0.000000 -0.000000 0.000000 0.000000 0.000000 0.000000 0.000000 0.000000 0.000000 0.000000 0.000000 0.000000 
0.412500 80.536491 3.582535 0.106894 8.856413 -4.080169 -0.000000 -0.000000 0.000000 -31.840791 -1.048991 1.270047 59.220889 2.998918 6.657776 3.175561 0.015642 -2.680433 -0.000000 -0.000000 0.000001 -0.000000 -0.000000 0.000000 -0.000001 -0.000001 0.000001 -8.179243 -13.246710 9.214811 21.176800 2.800829 -1.807721 -12.029385 -4.185116 -5.805591 0.000000 -0.000000 0.000000 0.000000 -0.000000 0.000000 -0.000002 -0.000000 -0.000000 0.391562 -0.754009 1.528714 0.764765 -1.479451 1.103474 0.764765 -1.479452 1.103474 -3.349641 -1.195398 -0.924340 -1.648953 -4.652183 0.424370 -0.000000 0.000000 0.000000 -0.000000 0.000000 0.000000 -0.000000 0.000000 0.000000 7.432353 -19.626620 1.295183 6.743835 6.179623 -78.011784 -0.250884 -39.450981 -0.159429 21.153895 -14.792709 2.676830 28.671225 7.850208 20.658300 -9.090909 17.650278 -12.300101 0.000006 -0.000003 -0.000004 0.344427 3.589714 4.508848 0.227943 2.268730 -16.282245 0.000000 0.000002 -0.000005 0.569290 7.516668 -15.992862 0.521816 3.125350 -26.177595 -0.000003 -0.000004 -0.000004 0.691149 7.690550 -33.275363 0.385422 1.874809 -17.168451 0.000000 -0.000003 -0.000003 3.464190 13.301438 -30.938394 0.398557 2.364767 -28.563305 -0.000000 0.000001 -0.000004 0.000000 -0.000002 0.000000 -0.877301 6.460734 4.985423 21.446408 0.537177 71.689030 -0.233522 39.456162 0.150256 22.024010 6.519745 2.618302 12.333939 -7.634158 -17.315897 6.201084 -5.410720 -13.158493 -0.000000 -0.000000 0.000001 -0.948085 0.809754 10.751169 0.578257 -3.155986 26.774195 -0.000002 0.000000 -0.000002 0.801622 -7.991560 23.169726 1.055969 -4.013376 37.657288 0.000001 0.000001 -0.000002 1.052948 -8.355564 40.429010 0.674298 -2.458809 24.357556 -0.000001 0.000001 0.000000 2.353259 -9.970390 45.319746 1.422679 -3.907497 49.114961 -0.000000 0.000001 0.000002 -0.000000 -0.000000 -0.000000 -0.000000 0.000000 -0.000000 -0.000000 0.000000 -0.000000 -0.000000 0.000000 -0.000000 -0.000000 0.000000 -0.000000 -0.000000 0.000000 -0.000000 -0.000000 -0.000000 0.000000 -0.000000 0.000000 -0.000000 -0.000000 0.000000 -0.000000 -0.000000 -0.000000 0.000000 0.000000 0.000000 0.000000 0.000000 0.000000 0.000000 -0.000000 -0.000000 0.000000 
0.677676 80.594566 7.187243 0.828634 7.532244 -3.138729 -0.000000 -0.000001 -0.000000 -34.687133 -0.418583 -0.688296 50.316627 4.236658 6.478255 2.438635 1.164356 -3.747580 0.000001 0.000001 0.000000 0.000001 0.000001 0.000000 -0.000002 -0.000001 -0.000000 -6.057820 -12.767416 8.224150 21.153296 3.916466 -1.721770 -14.055250 -3.646647 -5.679431 -0.000000 0.000000 0.000000 -0.000000 0.000000 0.000000 0.000001 0.000000 0.000000 0.407263 -0.373669 1.143067 0.807394 -0.854599 0.821196 0.807394 -0.854599 0.821196 -3.299949 -1.220842 -0.905116 -2.203848 -5.321985 0.420781 -0.000000 -0.000000 0.000000 -0.000000 -0.000000 0.000000 -0.000000 -0.000000 0.000000 6.701864 -18.347780 -0.141832 11.395785 7.354854 -79.453275 -0.192012 -40.596537 -0.124978 19.286856 -11.514926 1.833045 28.645979 7.258292 20.477814 -9.386485 17.110563 -12.318776 -0.000001 -0.000002 0.000006 0.366310 3.535871 5.124833 0.212413 2.214588 -15.663680 -0.000004 -0.000000 -0.000004 0.548128 7.462061 -15.372592 0.497394 3.074854 -25.558380 0.000001 -0.000002 -0.000002 0.669788 7.639483 -32.654711 0.369544 1.823148 -16.549878 -0.000006 -0.000001 -0.000000 3.412988 13.259550 -30.311488 0.373388 2.311677 -27.942546 -0.000003 0.000002 0.000005 0.000001 0.000002 -0.000001 -0.878180 7.266463 5.449223 19.960251 3.003834 68.317171 -0.249989 43.794866 0.174762 20.414607 5.213222 1.924750 12.333938 -7.634145 -17.315880 6.201087 -5.410717 -13.158493 0.000001 0.000004 0.000000 -0.948077 0.809743 10.751155 0.578283 -3.155977 26.774219 0.000003 0.000000 0.000002 0.801620 -7.991554 23.169728 1.055958 -4.013387 37.657271 0.000001 0.000002 -0.000003 1.052956 -8.355561 40.429013 0.674305 -2.458815 24.357546 -0.000001 0.000001 0.000000 2.353262 -9.970381 45.319774 1.422656 -3.907503 49.114948 0.000001 0.000003 -0.000003 -0.000001 -0.000000 0.000001 -0.000000 -0.000000 -0.000000 -0.000000 -0.000000 -0.000000 -0.000000 -0.000000 -0.000000 -0.000000 -0.000000 -0.000000 -0.000000 -0.000000 -0.000000 0.000000 0.000000 -0.000000 -0.000000 -0.000000 -0.000000 -0.000000 -0.000000 -0.000000 0.000000 0.000000 -0.000000 -0.000000 -0.000000 -0.000000 -0.000000 -0.000000 -0.000000 -0.000000 -0.000001 -0.000000 
1.001376 80.550262 10.992689 1.626049 5.951642 -2.369649 -0.000000 -0.000000 -0.000000 -35.655285 0.451491 -2.621197 38.707092 5.577397 6.434202 2.567774 1.078038 -0.588916 0.000001 0.000000 -0.000000 0.000001 0.000000 0.000000 -0.000000 -0.000001 0.000000 -3.774546 -12.047633 7.310198 20.782331 2.920692 -1.905338 -15.966474 -3.274035 -4.889451 0.000000 0.000000 0.000000 0.000000 0.000000 0.000000 0.000000 0.000000 -0.000000 0.412610 0.009204 0.778000 0.825192 -0.142482 0.667108 0.825191 -0.142480 0.667108 -3.224830 -1.248649 -0.897332 -2.680848 -5.967014 0.351801 -0.000000 -0.000000 0.000000 -0.000000 -0.000000 0.000000 -0.000000 -0.000000 0.000000 6.021404 -17.214068 -1.451094 15.745034 7.874488 -80.838984 -0.134155 -40.669627 -0.087422 15.362321 -9.368942 2.096573 28.622075 6.624230 20.286729 -9.702034 16.533431 -12.345191 0.000002 0.000002 -0.000001 0.390384 3.477986 5.783634 0.196482 2.156474 -15.002049 0.000001 0.000001 -0.000002 0.526206 7.403519 -14.709229 0.471845 3.020581 -24.896096 0.000004 0.000003 -0.000001 0.646591 7.585057 -31.990851 0.347253 1.769394 -15.888070 -0.000001 -0.000002 -0.000004 3.359636 13.215732 -29.641153 0.349405 2.253467 -27.278657 -0.000001 0.000001 0.000002 0.000000 0.000000 0.000000 -0.853776 7.679946 6.361931 18.603851 4.578155 64.382347 -0.255326 47.578432 0.190135 19.680258 3.950944 0.641514 12.333949 -7.634137 -17.315885 6.201094 -5.410734 -13.158520 -0.000001 -0.000002 0.000001 -0.948076 0.809739 10.751150 0.578267 -3.155967 26.774219 -0.000003 0.000002 0.000000 0.801619 -7.991565 23.169713 1.055973 -4.013397 37.657251 -0.000004 0.000000 -0.000006 1.052957 -8.355572 40.429010 0.674304 -2.458806 24.357549 -0.000002 -0.000001 0.000000 2.353268 -9.970366 45.319750 1.422658 -3.907499 49.114958 -0.000003 0.000001 0.000002 -0.000000 -0.000002 0.000001 0.000000 0.000000 0.000000 0.000000 0.000000 0.000000 0.000000 0.000000 0.000000 0.000000 0.000000 0.000000 0.000000 0.000000 0.000000 -0.000000 0.000000 0.000000 0.000000 0.000000 0.000000 0.000000 0.000000 0.000000 -0.000000 0.000000 0.000000 -0.000000 0.000000 0.000000 -0.000000 0.000000 0.000000 -0.000000 -0.000000 -0.000000 
